<svg width="49" height="49" viewBox="0 0 49 49" fill="none" xmlns="http://www.w3.org/2000/svg">
<path d="M0.8125 24.5C0.8125 37.5624 11.4376 48.1875 24.5 48.1875C37.5624 48.1875 48.1875 37.5624 48.1875 24.5C48.1875 11.4376 37.5624 0.8125 24.5 0.8125C11.4376 0.8125 0.8125 11.4376 0.8125 24.5ZM5.125 24.5C5.125 13.8118 13.8118 5.125 24.5 5.125C35.1882 5.125 43.875 13.8118 43.875 24.5C43.875 35.1882 35.1882 43.875 24.5 43.875C13.8118 43.875 5.125 35.1882 5.125 24.5Z" fill="#A7A9D2" stroke="#A7A9D2"/>
<path d="M31.1251 33.2813L31.1274 33.2812C31.5978 33.2791 32.0547 33.1236 32.4288 32.8384C32.8029 32.5532 33.0738 32.1538 33.2004 31.7007C33.3271 31.2477 33.3026 30.7657 33.1306 30.3279C32.9587 29.89 32.6487 29.5201 32.2476 29.2743L32.2477 29.2743L32.2428 29.2714L25.0001 24.945V12.9062C25.0001 11.7026 24.0475 10.75 22.8439 10.75C21.6402 10.75 20.6876 11.7026 20.6876 12.9062V26.1536C20.6838 26.5259 20.7773 26.8928 20.9588 27.218C21.1408 27.5441 21.405 27.8168 21.7251 28.0092L21.7254 28.0094L30.003 32.976C30.3618 33.199 30.7548 33.2812 31.1251 33.2813Z" fill="#A7A9D2" stroke="#A7A9D2"/>
</svg>
