<svg width="62" height="86" viewBox="0 0 62 86" fill="none" xmlns="http://www.w3.org/2000/svg">
<path d="M10.3019 82H51.6982C55.4107 82 58.3638 78.9456 57.9644 75.4263C55.3863 52.75 40 53.125 40 43C40 32.875 55.5832 33.4375 57.9625 10.5737C58.3375 7.0525 55.4107 4 51.6982 4H10.3019C6.58943 4 3.67005 7.0525 4.03755 10.5737C6.41693 33.4375 22.0001 32.6875 22.0001 43C22.0001 53.3125 6.6138 52.75 4.03755 75.4263C3.6363 78.9456 6.58943 82 10.3019 82Z" stroke="#A7A9D2" stroke-width="7" stroke-linecap="round" stroke-linejoin="round"/>
<path d="M47.3687 76H14.7119C11.7869 76 10.9619 72.625 13.0131 70.5325C17.9781 65.5 28 61.8963 28 56.125V37C28 33.2781 20.875 30.4375 16.4669 24.4C15.7394 23.4044 15.8125 22 17.6612 22H44.4231C46 22 46.3412 23.3931 45.6231 24.3906C41.2787 30.4375 34 33.2594 34 37V56.125C34 61.8494 44.4456 64.9375 49.075 70.5381C50.9406 72.7956 50.2881 76 47.3687 76Z" fill="#FF6565"/>
</svg>
