<svg id="visual" viewBox="0 0 900 600" width="900" height="600" xmlns="http://www.w3.org/2000/svg" xmlns:xlink="http://www.w3.org/1999/xlink" version="1.1"><rect x="0" y="0" width="900" height="600" fill="#ffffff"></rect><defs><linearGradient id="grad1_0" x1="33.3%" y1="100%" x2="100%" y2="0%"><stop offset="20%" stop-color="#ffffff" stop-opacity="1"></stop><stop offset="80%" stop-color="#ffffff" stop-opacity="1"></stop></linearGradient></defs><defs><linearGradient id="grad2_0" x1="0%" y1="100%" x2="66.7%" y2="0%"><stop offset="20%" stop-color="#ffffff" stop-opacity="1"></stop><stop offset="80%" stop-color="#ffffff" stop-opacity="1"></stop></linearGradient></defs><g transform="translate(900, 600)"><path d="M-216.3 0C-217.1 -32.1 -218 -64.2 -199.9 -82.8C-181.8 -101.3 -144.8 -106.3 -123 -123C-101.3 -139.8 -94.9 -168.2 -76.9 -185.7C-59 -203.2 -29.5 -209.8 0 -216.3L0 0Z" fill="#8a89ff"></path></g><g transform="translate(0, 0)"><path d="M216.3 0C214 28.4 211.7 56.7 199.9 82.8C188.1 108.8 166.8 132.6 142.1 142.1C117.4 151.7 89.3 147.1 65.1 157.1C40.8 167.1 20.4 191.7 0 216.3L0 0Z" fill="#8a89ff"></path></g></svg>