<svg width="160" height="92" viewBox="0 0 160 92" fill="none" xmlns="http://www.w3.org/2000/svg">
<path d="M3.52185 88.4819C5.77756 90.7345 8.83656 92 12.0262 92C15.2157 92 18.2747 90.7345 20.5305 88.4819L80.0726 29.0036L139.615 88.4819C141.883 90.6707 144.922 91.8818 148.076 91.8545C151.23 91.8271 154.247 90.5634 156.477 88.3356C158.707 86.1077 159.972 83.094 160 79.9435C160.027 76.793 158.815 73.7578 156.623 71.4916L88.5769 3.51807C86.3212 1.26545 83.2622 0 80.0726 0C76.883 0 73.824 1.26545 71.5683 3.51807L3.52185 71.4916C1.26681 73.7449 0 76.8006 0 79.9867C0 83.1729 1.26681 86.2286 3.52185 88.4819Z" fill="#4D47EB"/>
</svg>
