<svg width="120" height="126" viewBox="0 0 120 126" fill="none" xmlns="http://www.w3.org/2000/svg">
<path d="M114.508 32.7826L114.508 32.7828L78.8661 68.4249L78.5 68.7911V69.3088V118.184V118.184C78.5002 119.205 78.2392 120.21 77.7419 121.102C77.2445 121.994 76.5274 122.744 75.6585 123.281C74.7897 123.818 73.798 124.124 72.7776 124.17C71.7572 124.216 70.742 124 69.8284 123.544L69.8282 123.543L45.3581 111.312C45.3581 111.312 45.358 111.312 45.358 111.312C44.1988 110.732 43.2238 109.841 42.5424 108.739C41.861 107.636 41.5 106.366 41.5 105.069V69.3088V68.7911L41.1339 68.4249L5.49172 32.7828L5.49158 32.7826C3.25668 30.5484 2.00075 27.518 2 24.3578C2 24.3577 2 24.3577 2 24.3576V10.625C2 8.33751 2.9087 6.14371 4.5262 4.5262C6.14371 2.9087 8.33751 2 10.625 2H109.375C111.662 2 113.856 2.9087 115.474 4.5262C117.091 6.14371 118 8.33751 118 10.625V24.3576C118 24.3577 118 24.3577 118 24.3578C117.999 27.518 116.743 30.5484 114.508 32.7826ZM13.9167 12.6667H12.6667V13.9167V24.3578V24.8756L13.0328 25.2417L49.6361 61.8451L49.6367 61.8456C50.4385 62.6464 51.0746 63.5974 51.5087 64.6442C51.9428 65.6909 52.1664 66.8129 52.1667 67.9461C52.1667 67.9462 52.1667 67.9463 52.1667 67.9464V102.015V102.787L52.8577 103.133L66.0243 109.716L67.8333 110.621V108.598V67.9461C67.8333 65.6565 68.7423 63.4617 70.3607 61.8548L70.364 61.8515L106.967 25.235L107.333 24.8689V24.3513V13.9167V12.6667H106.083H13.9167Z" fill="#4D47EB" stroke="white" stroke-width="2.5"/>
</svg>
