<svg width="100" height="100" viewBox="0 0 100 100" fill="none" xmlns="http://www.w3.org/2000/svg">
<path d="M90.4448 52.722V47.2422L97.5076 41.2252C98.8095 40.1079 99.6638 38.5785 99.9196 36.9072C100.175 35.236 99.8162 33.5305 98.9054 32.0922L90.2241 17.7659C89.579 16.678 88.6514 15.7745 87.5344 15.1458C86.4175 14.5172 85.1503 14.1856 83.8602 14.1843C83.0607 14.1784 82.2655 14.2993 81.5059 14.5425L72.5671 17.4794C71.0238 16.4809 69.4139 15.5835 67.7482 14.7932L65.8721 5.76764C65.5358 4.1187 64.6144 2.6375 63.2694 1.5833C61.9244 0.529111 60.2414 -0.0308953 58.5151 0.00131598H41.2995C39.5732 -0.0308953 37.8902 0.529111 36.5452 1.5833C35.2002 2.6375 34.2788 4.1187 33.9425 5.76764L32.0664 14.7932C30.3888 15.5833 28.7667 16.4806 27.2107 17.4794L18.4558 14.3992C17.6881 14.2045 16.8931 14.1319 16.1016 14.1843C14.8114 14.1856 13.5443 14.5172 12.4273 15.1458C11.3103 15.7745 10.3828 16.678 9.7377 17.7659L1.05635 32.0922C0.197735 33.5283 -0.121324 35.2105 0.153821 36.8505C0.428967 38.4905 1.2812 39.9864 2.56455 41.0819L9.51698 47.278V52.7578L2.56455 58.7748C1.24495 59.878 0.369406 61.4006 0.0933068 63.0725C-0.182792 64.7445 0.158407 66.4576 1.05635 67.9078L9.7377 82.2341C10.3828 83.322 11.3103 84.2255 12.4273 84.8542C13.5443 85.4828 14.8114 85.8144 16.1016 85.8157C16.9011 85.8216 17.6963 85.7007 18.4558 85.4575L27.3947 82.5206C28.938 83.5192 30.5478 84.4165 32.2136 85.2068L34.0896 94.2324C34.426 95.8813 35.3473 97.3625 36.6923 98.4167C38.0373 99.4709 39.7203 100.031 41.4467 99.9987H58.8094C60.5357 100.031 62.2187 99.4709 63.5637 98.4167C64.9087 97.3625 65.83 95.8813 66.1664 94.2324L68.0425 85.2068C69.7201 84.4167 71.3422 83.5194 72.8982 82.5206L81.8002 85.4575C82.5598 85.7007 83.3549 85.8216 84.1545 85.8157C85.4446 85.8144 86.7118 85.4828 87.8287 84.8542C88.9457 84.2255 89.8733 83.322 90.5183 82.2341L98.9054 67.9078C99.764 66.4717 100.083 64.7895 99.8079 63.1495C99.5328 61.5095 98.6806 60.0136 97.3972 58.9181L90.4448 52.722ZM83.8602 78.6525L71.2428 74.4979C68.2892 76.9338 64.9135 78.8379 61.274 80.121L58.6622 92.9788H41.2995L38.6878 80.2643C35.077 78.9447 31.7196 77.0439 28.7557 74.6412L16.1016 78.6525L7.42022 64.3263L17.4258 55.7305C16.7457 52.0231 16.7457 48.2276 17.4258 44.5202L7.42022 35.6737L16.1016 21.3475L28.7189 25.5021C31.6726 23.0662 35.0482 21.1621 38.6878 19.879L41.2995 7.02119H58.6622L61.274 19.7358C64.8847 21.0553 68.2422 22.9561 71.206 25.3588L83.8602 21.3475L92.5415 35.6737L82.5359 44.2695C83.2161 47.9769 83.2161 51.7724 82.5359 55.4798L92.5415 64.3263L83.8602 78.6525Z" fill="#A7A9D2"/>
<path d="M49.9809 71.4896C45.6156 71.4896 41.3484 70.2292 37.7188 67.8679C34.0892 65.5067 31.2603 62.1505 29.5897 58.2238C27.9192 54.2971 27.4821 49.9763 28.3338 45.8078C29.1854 41.6392 31.2875 37.8102 34.3742 34.8049C37.4609 31.7995 41.3936 29.7528 45.675 28.9237C49.9564 28.0945 54.3942 28.5201 58.4272 30.1465C62.4602 31.773 65.9072 34.5274 68.3324 38.0613C70.7576 41.5952 72.0521 45.75 72.0521 50.0002C72.0816 52.8302 71.5309 55.6375 70.4321 58.2577C69.3334 60.8779 67.7088 63.2583 65.6534 65.2595C63.598 67.2607 61.1531 68.8425 58.462 69.9123C55.7708 70.9821 52.8875 71.5183 49.9809 71.4896ZM49.9809 35.6739C48.0362 35.6298 46.1026 35.9702 44.2969 36.6745C42.4912 37.3789 40.851 38.4325 39.4756 39.7717C38.1001 41.111 37.0179 42.7079 36.2945 44.466C35.5711 46.2241 35.2214 48.1067 35.2667 50.0002C35.2214 51.8936 35.5711 53.7763 36.2945 55.5343C37.0179 57.2924 38.1001 58.8894 39.4756 60.2286C40.851 61.5678 42.4912 62.6214 44.2969 63.3258C46.1026 64.0301 48.0362 64.3705 49.9809 64.3264C51.9256 64.3705 53.8592 64.0301 55.6649 63.3258C57.4706 62.6214 59.1108 61.5678 60.4862 60.2286C61.8617 58.8894 62.9439 57.2924 63.6673 55.5343C64.3907 53.7763 64.7403 51.8936 64.695 50.0002C64.7403 48.1067 64.3907 46.2241 63.6673 44.466C62.9439 42.7079 61.8617 41.111 60.4862 39.7717C59.1108 38.4325 57.4706 37.3789 55.6649 36.6745C53.8592 35.9702 51.9256 35.6298 49.9809 35.6739Z" fill="#A7A9D2"/>
</svg>
