<svg width="108" height="108" viewBox="0 0 108 108" fill="none" xmlns="http://www.w3.org/2000/svg">
<path d="M4 60.25C4 56.8 6.8 54 10.25 54H22.75C26.2 54 29 56.8 29 60.25V97.75C29 101.2 26.2 104 22.75 104H10.25C8.5924 104 7.00269 103.342 5.83058 102.169C4.65848 100.997 4 99.4076 4 97.75V60.25ZM41.5 35.25C41.5 31.8 44.3 29 47.75 29H60.25C63.7 29 66.5 31.8 66.5 35.25V97.75C66.5 101.2 63.7 104 60.25 104H47.75C46.0924 104 44.5027 103.342 43.3306 102.169C42.1585 100.997 41.5 99.4076 41.5 97.75V35.25ZM79 10.25C79 6.8 81.8 4 85.25 4H97.75C101.2 4 104 6.8 104 10.25V97.75C104 101.2 101.2 104 97.75 104H85.25C83.5924 104 82.0027 103.342 80.8306 102.169C79.6585 100.997 79 99.4076 79 97.75V10.25Z" stroke="#A7A9D2" stroke-width="8" stroke-linecap="round" stroke-linejoin="round"/>
</svg>
