<svg width="110" height="110" viewBox="0 0 110 110" fill="none" xmlns="http://www.w3.org/2000/svg">
<path d="M105 98.6508V44.6825C105 43.6969 104.774 42.7247 104.34 41.8431C103.906 40.9615 103.276 40.1946 102.5 39.6032L58.75 6.26984C57.6682 5.44557 56.3523 5 55 5C53.6477 5 52.3318 5.44557 51.25 6.26984L7.5 39.6032C6.72378 40.1946 6.09375 40.9615 5.65983 41.8431C5.22591 42.7247 5 43.6969 5 44.6825V98.6508C5 100.335 5.65848 101.95 6.83058 103.14C8.00269 104.331 9.5924 105 11.25 105H36.25C37.9076 105 39.4973 104.331 40.6694 103.14C41.8415 101.95 42.5 100.335 42.5 98.6508V79.6032C42.5 77.9193 43.1585 76.3043 44.3306 75.1136C45.5027 73.9229 47.0924 73.254 48.75 73.254H61.25C62.9076 73.254 64.4973 73.9229 65.6694 75.1136C66.8415 76.3043 67.5 77.9193 67.5 79.6032V98.6508C67.5 100.335 68.1585 101.95 69.3306 103.14C70.5027 104.331 72.0924 105 73.75 105H98.75C100.408 105 101.997 104.331 103.169 103.14C104.342 101.95 105 100.335 105 98.6508Z" stroke="#A7A9D2" stroke-width="10" stroke-linecap="round" stroke-linejoin="round"/>
</svg>
