<svg width="54" height="54" viewBox="0 0 54 54" fill="none" xmlns="http://www.w3.org/2000/svg">
<path d="M1.67891 14.4902L24.8117 25.6605C25.4141 25.9477 26.218 26.0977 27.0137 26.0977C27.8094 26.0977 28.6133 25.9477 29.2145 25.6605L52.3473 14.4902C53.5637 13.9043 53.5637 12.9457 52.3473 12.3574L29.2145 1.18711C28.6133 0.9 27.8082 0.75 27.0137 0.75C26.2191 0.75 25.4141 0.9 24.8117 1.18711L1.67891 12.3574C0.4625 12.9457 0.4625 13.902 1.67891 14.4902Z" fill="#4B50F7" fill-opacity="0.5"/>
<path d="M52.3475 25.9336C52.3475 25.9336 48.1229 23.8969 47.5627 23.6227C47.0025 23.3484 46.8514 23.3637 46.2631 23.6367C45.6748 23.9098 29.2006 31.8668 29.2006 31.8668C28.5062 32.1666 27.7561 32.316 26.9998 32.3051C26.2064 32.3051 25.4002 32.1539 24.799 31.8668C24.799 31.8668 8.76191 24.1324 8.00957 23.7598C7.19512 23.3672 6.96074 23.3672 6.21895 23.7188L1.64863 25.9195C0.432227 26.5055 0.432227 27.4652 1.64863 28.0523L24.785 39.2227C25.3861 39.5098 26.1912 39.6598 26.9857 39.6598C27.7803 39.6598 28.5854 39.5098 29.1877 39.2227L52.3205 28.0547C53.5639 27.4781 53.5639 26.5219 52.3475 25.9336Z" fill="#4B50F7" fill-opacity="0.75"/>
<path d="M52.3477 39.5098C52.3477 39.5098 48.123 37.473 47.5629 37.1953C47.0027 36.9176 46.8516 36.9363 46.2633 37.2094C45.675 37.4824 29.2148 45.457 29.2148 45.457C28.5203 45.7564 27.7703 45.9053 27.0141 45.8941C26.2207 45.8941 25.4145 45.7441 24.8121 45.457C24.8121 45.457 8.775 37.7226 8.02383 37.35C7.20352 36.9527 6.96914 36.9527 6.23203 37.309L1.66172 39.5098C0.444141 40.0957 0.444141 41.0543 1.66172 41.6426L24.7945 52.8129C25.3957 53.1129 26.2008 53.25 26.9953 53.25C27.7898 53.25 28.5949 53.1 29.1961 52.8129L52.3336 41.6484C53.5641 41.0543 53.5641 40.098 52.3477 39.5098Z" fill="#4B50F7"/>
</svg>
