<svg width="76" height="103" viewBox="0 0 76 103" fill="none" xmlns="http://www.w3.org/2000/svg">
<path d="M1.38891 96.2533L1.38892 96.2559C1.39286 97.0114 1.52902 97.7598 1.79073 98.4588C2.05244 99.1578 2.43529 99.7955 2.91993 100.334C3.40466 100.873 3.98224 101.303 4.62142 101.596C5.26047 101.888 5.94694 102.038 6.64106 102.033C6.64145 102.033 6.64184 102.033 6.64223 102.033H69.3578C69.3582 102.033 69.3586 102.033 69.359 102.033C70.0531 102.038 70.7396 101.888 71.3786 101.596C72.0178 101.303 72.5954 100.873 73.0801 100.334C73.5648 99.7955 73.9476 99.1578 74.2093 98.4588C74.471 97.7598 74.6072 97.0114 74.6111 96.2559V96.2533L74.6111 16.2103L74.6111 16.2079C74.6074 15.4408 74.4674 14.6811 74.1981 13.973C73.9289 13.2649 73.535 12.6208 73.0372 12.0801C72.5393 11.5392 71.9468 11.1122 71.2929 10.8276C70.6415 10.544 69.944 10.4084 69.242 10.4303H63H62.5V10.9303V17.1788V17.6788H63H68.0556V94.7848H7.94447V17.6788H13H13.5V17.1788V10.9303V10.4303H13H7.48377C6.73791 10.3155 5.97905 10.3768 5.25671 10.6095C4.52141 10.8464 3.84365 11.2545 3.26668 11.8029C2.68989 12.3511 2.22661 13.0271 1.90425 13.7842C1.58192 14.5413 1.40685 15.3644 1.38903 16.1996L1.38892 16.1996V16.2103L1.38891 96.2533Z" fill="#A7A9D2" stroke="#A7A9D2"/>
<path d="M33.9041 76.1221L34.2778 76.5424L34.6515 76.1221L62.5681 44.7235L62.5808 44.7093L62.5923 44.6942C63.1207 44.0002 63.3908 43.117 63.36 42.2214C63.3293 41.3257 62.9993 40.4664 62.4225 39.8177C61.8443 39.1674 61.0571 38.7743 60.2135 38.7377C59.3696 38.701 58.5549 39.025 57.9309 39.626L57.917 39.6394L57.9041 39.6539L34.2778 66.227L23.707 54.3378L23.6954 54.3247L23.6829 54.3125C23.0631 53.7065 22.2506 53.3757 21.4062 53.4055C20.5622 53.4353 19.772 53.8222 19.1894 54.4682C18.6082 55.1127 18.2727 55.9698 18.2364 56.8654C18.2002 57.761 18.4649 58.6463 18.9891 59.3442L19.0015 59.3608L19.0152 59.3762L33.9041 76.1221Z" fill="#A7A9D2" stroke="#A7A9D2"/>
<path d="M60.2223 30.1763H60.7223V29.6763L60.7223 18.2104L60.7223 18.2085C60.7145 16.1604 59.9861 14.189 58.6816 12.7281C57.3754 11.2652 55.5938 10.4309 53.7223 10.4309H49.1433C48.4675 7.80533 47.0667 5.47459 45.128 3.78203C43.0928 2.00526 40.5805 1.03369 37.9862 1.03369C35.3918 1.03369 32.8795 2.00526 30.8443 3.78203C28.9056 5.47459 27.5049 7.80533 26.8291 10.4309L22.2501 10.4309L22.2477 10.4309C20.3814 10.4399 18.6076 11.2781 17.3079 12.7399C16.0099 14.1998 15.2856 16.1661 15.2778 18.2085V18.2104V29.6763V30.1763H15.7778H60.2223ZM43.0556 17.1794V17.6794H43.5556H53.7501C53.8403 17.6794 53.9407 17.7192 54.0246 17.8136C54.1102 17.9099 54.1667 18.0518 54.1667 18.2104V22.9279H21.8334V18.2104C21.8334 18.133 21.847 18.0575 21.8724 17.9886C21.8977 17.9198 21.9336 17.8607 21.9755 17.8136C22.0174 17.7666 22.0638 17.7328 22.1104 17.7111C22.1568 17.6895 22.2041 17.6794 22.2501 17.6794H32.4445H32.9445V17.1794V14.0552C32.9445 12.5128 33.4898 11.0438 34.4453 9.96904C35.3992 8.89619 36.6795 8.30667 38.0001 8.30667C39.3206 8.30667 40.6009 8.89619 41.5548 9.96904C42.5103 11.0438 43.0556 12.5128 43.0556 14.0552V17.1794Z" fill="#A7A9D2" stroke="#A7A9D2"/>
</svg>
